# xmcd
# 
# Track frame offsets:
#     150
#     19137
#     38059
#     57012
# 
# Disc length: 1010
# 
# Revision: 1
# Processed by: cddbd v1.5.2PL0 Copyright (c) Steve Scherf et al.
# Submitted via: BonkEnc v1.0.8
# 
DISCID=2703f004
DTITLE=榊原ゆい - Marionette
DYEAR=2009
DGENRE=Vocal
TTITLE0=Marionette
TTITLE1=背徳の円舞曲
TTITLE2=Marionette -instrumental-
TTITLE3=背徳の円舞曲 -instrumental-
EXTD=
EXTT0=
EXTT1=
EXTT2=
EXTT3=
PLAYORDER=
